<mxfile host="www.draw.io" modified="2019-11-21T01:58:16.037Z" agent="Mozilla/5.0 (Windows NT 10.0; WOW64) AppleWebKit/537.36 (KHTML, like Gecko) Chrome/78.0.3904.97 Safari/537.36" etag="FqKU60C4uz48wBu2XH6N" version="12.2.7" type="github" pages="1">
  <diagram name="Page-1" id="74e2e168-ea6b-b213-b513-2b3c1d86103e">
    <mxGraphModel dx="1025" dy="540" grid="1" gridSize="10" guides="1" tooltips="1" connect="1" arrows="1" fold="1" page="1" pageScale="1" pageWidth="1100" pageHeight="850" background="#ffffff" math="0" shadow="0">
      <root>
        <mxCell id="0"/>
        <mxCell id="1" parent="0"/>
        <mxCell id="77e6c97f196da883-1" value="Pool" style="swimlane;html=1;childLayout=stackLayout;startSize=20;rounded=0;shadow=0;labelBackgroundColor=none;strokeWidth=1;fontFamily=Verdana;fontSize=8;align=center;" parent="1" vertex="1">
          <mxGeometry x="70" y="50" width="1070" height="740" as="geometry"/>
        </mxCell>
        <mxCell id="77e6c97f196da883-2" value="web" style="swimlane;html=1;startSize=20;fillColor=#f5f5f5;strokeColor=#666666;fontColor=#333333;" parent="77e6c97f196da883-1" vertex="1">
          <mxGeometry y="20" width="160" height="720" as="geometry"/>
        </mxCell>
        <mxCell id="77e6c97f196da883-8" value="取数" style="rounded=1;whiteSpace=wrap;html=1;shadow=0;labelBackgroundColor=none;strokeWidth=1;fontFamily=Verdana;fontSize=8;align=center;fillColor=#ffe6cc;strokeColor=#d79b00;" parent="77e6c97f196da883-2" vertex="1">
          <mxGeometry x="20" y="65" width="100" height="60" as="geometry"/>
        </mxCell>
        <mxCell id="281USdX36rXN7U4N7sBA-3" value="取数成功" style="rounded=1;whiteSpace=wrap;html=1;shadow=0;labelBackgroundColor=none;strokeWidth=1;fontFamily=Verdana;fontSize=8;align=center;fillColor=#f8cecc;strokeColor=#b85450;" parent="77e6c97f196da883-2" vertex="1">
          <mxGeometry x="20" y="650" width="100" height="60" as="geometry"/>
        </mxCell>
        <mxCell id="77e6c97f196da883-26" style="edgeStyle=orthogonalEdgeStyle;rounded=1;html=1;labelBackgroundColor=none;startArrow=none;startFill=0;startSize=5;endArrow=classicThin;endFill=1;endSize=5;jettySize=auto;orthogonalLoop=1;strokeWidth=1;fontFamily=Verdana;fontSize=8" parent="77e6c97f196da883-1" source="77e6c97f196da883-8" target="77e6c97f196da883-11" edge="1">
          <mxGeometry relative="1" as="geometry"/>
        </mxCell>
        <mxCell id="77e6c97f196da883-3" value="building" style="swimlane;html=1;startSize=20;" parent="77e6c97f196da883-1" vertex="1">
          <mxGeometry x="160" y="20" width="160" height="720" as="geometry">
            <mxRectangle x="160" y="20" width="50" height="730" as="alternateBounds"/>
          </mxGeometry>
        </mxCell>
        <mxCell id="nILxPzaiPiFsQDtniwY4-3" value="" style="edgeStyle=orthogonalEdgeStyle;rounded=0;orthogonalLoop=1;jettySize=auto;html=1;" parent="77e6c97f196da883-3" source="77e6c97f196da883-11" target="nILxPzaiPiFsQDtniwY4-2" edge="1">
          <mxGeometry relative="1" as="geometry"/>
        </mxCell>
        <mxCell id="77e6c97f196da883-11" value="通过纳税人识别号查找组织信息" style="rounded=1;whiteSpace=wrap;html=1;shadow=0;labelBackgroundColor=none;strokeWidth=1;fontFamily=Verdana;fontSize=8;align=center;fillColor=#f0a30a;strokeColor=#BD7000;fontColor=#ffffff;" parent="77e6c97f196da883-3" vertex="1">
          <mxGeometry x="30" y="65" width="100" height="60" as="geometry"/>
        </mxCell>
        <mxCell id="nILxPzaiPiFsQDtniwY4-11" value="" style="edgeStyle=orthogonalEdgeStyle;orthogonalLoop=1;jettySize=auto;html=1;curved=1;strokeColor=#D5E8D4;strokeWidth=2;" parent="77e6c97f196da883-3" source="nILxPzaiPiFsQDtniwY4-2" target="nILxPzaiPiFsQDtniwY4-10" edge="1">
          <mxGeometry relative="1" as="geometry"/>
        </mxCell>
        <mxCell id="nILxPzaiPiFsQDtniwY4-2" value="分批异步查询数据" style="rounded=1;whiteSpace=wrap;html=1;shadow=0;labelBackgroundColor=none;strokeWidth=1;fontFamily=Verdana;fontSize=8;align=center;fillColor=#fff2cc;strokeColor=#d6b656;" parent="77e6c97f196da883-3" vertex="1">
          <mxGeometry x="30" y="305" width="100" height="60" as="geometry"/>
        </mxCell>
        <mxCell id="nILxPzaiPiFsQDtniwY4-10" value="查询预交数据" style="rounded=1;whiteSpace=wrap;html=1;shadow=0;labelBackgroundColor=none;strokeWidth=1;fontFamily=Verdana;fontSize=8;align=center;fillColor=#d5e8d4;strokeColor=#82b366;" parent="77e6c97f196da883-3" vertex="1">
          <mxGeometry x="30" y="410" width="100" height="60" as="geometry"/>
        </mxCell>
        <mxCell id="nILxPzaiPiFsQDtniwY4-52" value="数据组装" style="rounded=1;whiteSpace=wrap;html=1;shadow=0;labelBackgroundColor=none;strokeWidth=1;fontFamily=Verdana;fontSize=8;align=center;fillColor=#d5e8d4;strokeColor=#82b366;" parent="77e6c97f196da883-3" vertex="1">
          <mxGeometry x="30" y="510" width="100" height="60" as="geometry"/>
        </mxCell>
        <mxCell id="nILxPzaiPiFsQDtniwY4-66" value="分批取数并保存mongo" style="shape=document;whiteSpace=wrap;html=1;boundedLbl=1;fillColor=#D5E8D4;" parent="77e6c97f196da883-3" vertex="1">
          <mxGeometry x="-60" y="190" width="120" height="80" as="geometry"/>
        </mxCell>
        <mxCell id="nILxPzaiPiFsQDtniwY4-9" value="" style="edgeStyle=orthogonalEdgeStyle;orthogonalLoop=1;jettySize=auto;html=1;exitX=1;exitY=0.5;exitDx=0;exitDy=0;strokeColor=#D5E8D4;strokeWidth=2;rounded=1;" parent="77e6c97f196da883-1" source="nILxPzaiPiFsQDtniwY4-2" target="nILxPzaiPiFsQDtniwY4-8" edge="1">
          <mxGeometry relative="1" as="geometry">
            <Array as="points">
              <mxPoint x="290" y="290"/>
            </Array>
          </mxGeometry>
        </mxCell>
        <mxCell id="nILxPzaiPiFsQDtniwY4-50" value="" style="edgeStyle=orthogonalEdgeStyle;orthogonalLoop=1;jettySize=auto;html=1;entryX=0;entryY=0.5;entryDx=0;entryDy=0;exitX=1;exitY=0.5;exitDx=0;exitDy=0;strokeColor=#D5E8D4;strokeWidth=2;rounded=1;" parent="77e6c97f196da883-1" source="nILxPzaiPiFsQDtniwY4-2" target="nILxPzaiPiFsQDtniwY4-49" edge="1">
          <mxGeometry relative="1" as="geometry">
            <mxPoint x="290" y="320" as="sourcePoint"/>
            <mxPoint x="360" y="265" as="targetPoint"/>
            <Array as="points">
              <mxPoint x="290" y="420"/>
            </Array>
          </mxGeometry>
        </mxCell>
        <mxCell id="77e6c97f196da883-33" style="edgeStyle=orthogonalEdgeStyle;html=1;labelBackgroundColor=none;startArrow=none;startFill=0;startSize=5;endArrow=classicThin;endFill=1;endSize=5;jettySize=auto;orthogonalLoop=1;strokeWidth=2;fontFamily=Verdana;fontSize=8;exitX=1;exitY=0.5;exitDx=0;exitDy=0;curved=1;strokeColor=#D5E8D4;" parent="77e6c97f196da883-1" source="nILxPzaiPiFsQDtniwY4-2" target="77e6c97f196da883-15" edge="1">
          <mxGeometry relative="1" as="geometry">
            <mxPoint x="440" y="290" as="sourcePoint"/>
            <Array as="points">
              <mxPoint x="410" y="355"/>
              <mxPoint x="410" y="355"/>
            </Array>
          </mxGeometry>
        </mxCell>
        <mxCell id="77e6c97f196da883-4" value="input-tax" style="swimlane;html=1;startSize=20;fillColor=#FFFFFF;strokeColor=#000000;" parent="77e6c97f196da883-1" vertex="1">
          <mxGeometry x="320" y="20" width="430" height="720" as="geometry"/>
        </mxCell>
        <mxCell id="tmZRQzkdnRljVJp-DkMv-11" value="" style="rounded=1;whiteSpace=wrap;html=1;fillColor=#60a917;strokeColor=#2D7600;fontColor=#ffffff;" vertex="1" parent="77e6c97f196da883-4">
          <mxGeometry x="145" y="165" width="150" height="60" as="geometry"/>
        </mxCell>
        <mxCell id="nILxPzaiPiFsQDtniwY4-13" value="" style="edgeStyle=orthogonalEdgeStyle;orthogonalLoop=1;jettySize=auto;html=1;shadow=0;comic=0;strokeColor=#7EA6E0;curved=1;" parent="77e6c97f196da883-4" source="nILxPzaiPiFsQDtniwY4-8" target="nILxPzaiPiFsQDtniwY4-12" edge="1">
          <mxGeometry relative="1" as="geometry"/>
        </mxCell>
        <mxCell id="nILxPzaiPiFsQDtniwY4-8" value="&lt;font style=&quot;font-size: 12px&quot;&gt;查询进项数据&lt;/font&gt;" style="rounded=1;whiteSpace=wrap;html=1;shadow=0;labelBackgroundColor=none;strokeWidth=1;fontFamily=Verdana;fontSize=8;align=center;fillColor=#d5e8d4;strokeColor=#82b366;" parent="77e6c97f196da883-4" vertex="1">
          <mxGeometry x="30" y="240" width="100" height="60" as="geometry"/>
        </mxCell>
        <mxCell id="nILxPzaiPiFsQDtniwY4-12" value="飞机票" style="rounded=1;whiteSpace=wrap;html=1;shadow=0;labelBackgroundColor=none;strokeWidth=1;fontFamily=Verdana;fontSize=8;align=center;fillColor=#dae8fc;strokeColor=#6c8ebf;direction=east;" parent="77e6c97f196da883-4" vertex="1">
          <mxGeometry x="10" y="115" width="20" height="45" as="geometry"/>
        </mxCell>
        <mxCell id="nILxPzaiPiFsQDtniwY4-36" value="火车票" style="rounded=1;whiteSpace=wrap;html=1;shadow=0;labelBackgroundColor=none;strokeWidth=1;fontFamily=Verdana;fontSize=8;align=center;fillColor=#dae8fc;strokeColor=#6c8ebf;direction=east;" parent="77e6c97f196da883-4" vertex="1">
          <mxGeometry x="50" y="115" width="20" height="45" as="geometry"/>
        </mxCell>
        <mxCell id="nILxPzaiPiFsQDtniwY4-38" value="客运" style="rounded=1;whiteSpace=wrap;html=1;shadow=0;labelBackgroundColor=none;strokeWidth=1;fontFamily=Verdana;fontSize=8;align=center;fillColor=#dae8fc;strokeColor=#6c8ebf;direction=east;" parent="77e6c97f196da883-4" vertex="1">
          <mxGeometry x="90" y="115" width="20" height="45" as="geometry"/>
        </mxCell>
        <mxCell id="nILxPzaiPiFsQDtniwY4-41" value="增值税" style="rounded=1;whiteSpace=wrap;html=1;shadow=0;labelBackgroundColor=none;strokeWidth=1;fontFamily=Verdana;fontSize=8;align=center;fillColor=#dae8fc;strokeColor=#6c8ebf;direction=east;" parent="77e6c97f196da883-4" vertex="1">
          <mxGeometry x="125" y="115" width="20" height="45" as="geometry"/>
        </mxCell>
        <mxCell id="nILxPzaiPiFsQDtniwY4-43" value="" style="edgeStyle=orthogonalEdgeStyle;orthogonalLoop=1;jettySize=auto;html=1;shadow=0;comic=0;strokeColor=#7EA6E0;curved=1;exitX=0.5;exitY=0;exitDx=0;exitDy=0;entryX=0.25;entryY=1;entryDx=0;entryDy=0;" parent="77e6c97f196da883-4" source="nILxPzaiPiFsQDtniwY4-8" target="nILxPzaiPiFsQDtniwY4-41" edge="1">
          <mxGeometry relative="1" as="geometry">
            <mxPoint x="90" y="275" as="sourcePoint"/>
            <mxPoint x="140" y="160" as="targetPoint"/>
          </mxGeometry>
        </mxCell>
        <mxCell id="nILxPzaiPiFsQDtniwY4-44" value="" style="edgeStyle=orthogonalEdgeStyle;orthogonalLoop=1;jettySize=auto;html=1;shadow=0;comic=0;strokeColor=#7EA6E0;curved=1;entryX=0.5;entryY=1;entryDx=0;entryDy=0;" parent="77e6c97f196da883-4" source="nILxPzaiPiFsQDtniwY4-8" target="nILxPzaiPiFsQDtniwY4-36" edge="1">
          <mxGeometry relative="1" as="geometry">
            <mxPoint x="90" y="275" as="sourcePoint"/>
            <mxPoint x="30" y="352" as="targetPoint"/>
          </mxGeometry>
        </mxCell>
        <mxCell id="nILxPzaiPiFsQDtniwY4-45" value="" style="edgeStyle=orthogonalEdgeStyle;orthogonalLoop=1;jettySize=auto;html=1;shadow=0;comic=0;strokeColor=#7EA6E0;curved=1;entryX=0.25;entryY=1;entryDx=0;entryDy=0;exitX=0.5;exitY=0;exitDx=0;exitDy=0;" parent="77e6c97f196da883-4" source="nILxPzaiPiFsQDtniwY4-8" target="nILxPzaiPiFsQDtniwY4-38" edge="1">
          <mxGeometry relative="1" as="geometry">
            <mxPoint x="80" y="350" as="sourcePoint"/>
            <mxPoint x="40" y="362" as="targetPoint"/>
          </mxGeometry>
        </mxCell>
        <mxCell id="nILxPzaiPiFsQDtniwY4-46" value="&lt;font color=&quot;#7ea6e0&quot;&gt;并行查询&lt;/font&gt;" style="text;html=1;resizable=0;points=[];autosize=1;align=left;verticalAlign=top;spacingTop=-4;" parent="77e6c97f196da883-4" vertex="1">
          <mxGeometry x="50" y="170" width="60" height="20" as="geometry"/>
        </mxCell>
        <mxCell id="tmZRQzkdnRljVJp-DkMv-39" value="" style="edgeStyle=orthogonalEdgeStyle;rounded=0;orthogonalLoop=1;jettySize=auto;html=1;fontColor=#FFFFFF;" edge="1" parent="77e6c97f196da883-4" source="nILxPzaiPiFsQDtniwY4-49" target="tmZRQzkdnRljVJp-DkMv-37">
          <mxGeometry relative="1" as="geometry"/>
        </mxCell>
        <mxCell id="nILxPzaiPiFsQDtniwY4-49" value="&lt;font style=&quot;font-size: 12px&quot;&gt;查询进项转出数据&lt;/font&gt;" style="rounded=1;whiteSpace=wrap;html=1;shadow=0;labelBackgroundColor=none;strokeWidth=1;fontFamily=Verdana;fontSize=8;align=center;fillColor=#d5e8d4;strokeColor=#82b366;" parent="77e6c97f196da883-4" vertex="1">
          <mxGeometry x="25" y="370" width="100" height="60" as="geometry"/>
        </mxCell>
        <mxCell id="tmZRQzkdnRljVJp-DkMv-1" value="" style="edgeStyle=orthogonalEdgeStyle;orthogonalLoop=1;jettySize=auto;html=1;shadow=0;comic=0;strokeColor=#7EA6E0;curved=1;" edge="1" parent="77e6c97f196da883-4" target="tmZRQzkdnRljVJp-DkMv-2" source="nILxPzaiPiFsQDtniwY4-8">
          <mxGeometry relative="1" as="geometry">
            <mxPoint x="215" y="300" as="sourcePoint"/>
          </mxGeometry>
        </mxCell>
        <mxCell id="tmZRQzkdnRljVJp-DkMv-2" value="采购" style="rounded=1;whiteSpace=wrap;html=1;shadow=0;labelBackgroundColor=none;strokeWidth=1;fontFamily=Verdana;fontSize=8;align=center;fillColor=#dae8fc;strokeColor=#6c8ebf;direction=east;" vertex="1" parent="77e6c97f196da883-4">
          <mxGeometry x="160" y="175" width="20" height="45" as="geometry"/>
        </mxCell>
        <mxCell id="tmZRQzkdnRljVJp-DkMv-3" value="报销" style="rounded=1;whiteSpace=wrap;html=1;shadow=0;labelBackgroundColor=none;strokeWidth=1;fontFamily=Verdana;fontSize=8;align=center;fillColor=#dae8fc;strokeColor=#6c8ebf;direction=east;" vertex="1" parent="77e6c97f196da883-4">
          <mxGeometry x="200" y="175" width="20" height="45" as="geometry"/>
        </mxCell>
        <mxCell id="tmZRQzkdnRljVJp-DkMv-4" value="不动产" style="rounded=1;whiteSpace=wrap;html=1;shadow=0;labelBackgroundColor=none;strokeWidth=1;fontFamily=Verdana;fontSize=8;align=center;fillColor=#dae8fc;strokeColor=#6c8ebf;direction=east;" vertex="1" parent="77e6c97f196da883-4">
          <mxGeometry x="240" y="175" width="20" height="45" as="geometry"/>
        </mxCell>
        <mxCell id="tmZRQzkdnRljVJp-DkMv-7" value="" style="edgeStyle=orthogonalEdgeStyle;orthogonalLoop=1;jettySize=auto;html=1;shadow=0;comic=0;strokeColor=#7EA6E0;curved=1;entryX=0.5;entryY=1;entryDx=0;entryDy=0;" edge="1" parent="77e6c97f196da883-4" target="tmZRQzkdnRljVJp-DkMv-3" source="nILxPzaiPiFsQDtniwY4-8">
          <mxGeometry relative="1" as="geometry">
            <mxPoint x="215" y="300" as="sourcePoint"/>
            <mxPoint x="-225" y="342" as="targetPoint"/>
          </mxGeometry>
        </mxCell>
        <mxCell id="tmZRQzkdnRljVJp-DkMv-8" value="" style="edgeStyle=orthogonalEdgeStyle;orthogonalLoop=1;jettySize=auto;html=1;shadow=0;comic=0;strokeColor=#7EA6E0;curved=1;entryX=0.25;entryY=1;entryDx=0;entryDy=0;" edge="1" parent="77e6c97f196da883-4" target="tmZRQzkdnRljVJp-DkMv-4" source="nILxPzaiPiFsQDtniwY4-8">
          <mxGeometry relative="1" as="geometry">
            <mxPoint x="215" y="300" as="sourcePoint"/>
            <mxPoint x="-215" y="352" as="targetPoint"/>
          </mxGeometry>
        </mxCell>
        <mxCell id="tmZRQzkdnRljVJp-DkMv-9" value="&lt;font color=&quot;#7ea6e0&quot;&gt;并行查询&lt;/font&gt;" style="text;html=1;resizable=0;points=[];autosize=1;align=left;verticalAlign=top;spacingTop=-4;" vertex="1" parent="77e6c97f196da883-4">
          <mxGeometry x="190" y="230" width="60" height="20" as="geometry"/>
        </mxCell>
        <mxCell id="tmZRQzkdnRljVJp-DkMv-12" value="checked" style="text;html=1;strokeColor=none;fillColor=none;align=center;verticalAlign=middle;whiteSpace=wrap;rounded=0;direction=north;rotation=90;" vertex="1" parent="77e6c97f196da883-4">
          <mxGeometry x="275" y="190" width="20" height="10" as="geometry"/>
        </mxCell>
        <mxCell id="tmZRQzkdnRljVJp-DkMv-23" value="" style="rounded=1;whiteSpace=wrap;html=1;fillColor=#a20025;strokeColor=#6F0000;fontColor=#ffffff;" vertex="1" parent="77e6c97f196da883-4">
          <mxGeometry x="145" y="290" width="150" height="60" as="geometry"/>
        </mxCell>
        <mxCell id="tmZRQzkdnRljVJp-DkMv-24" value="" style="edgeStyle=orthogonalEdgeStyle;orthogonalLoop=1;jettySize=auto;html=1;shadow=0;comic=0;strokeColor=#7EA6E0;curved=1;entryX=0.5;entryY=0;entryDx=0;entryDy=0;" edge="1" parent="77e6c97f196da883-4" target="tmZRQzkdnRljVJp-DkMv-25" source="nILxPzaiPiFsQDtniwY4-8">
          <mxGeometry relative="1" as="geometry">
            <mxPoint x="145" y="390" as="sourcePoint"/>
          </mxGeometry>
        </mxCell>
        <mxCell id="tmZRQzkdnRljVJp-DkMv-25" value="采购" style="rounded=1;whiteSpace=wrap;html=1;shadow=0;labelBackgroundColor=none;strokeWidth=1;fontFamily=Verdana;fontSize=8;align=center;fillColor=#dae8fc;strokeColor=#6c8ebf;direction=east;" vertex="1" parent="77e6c97f196da883-4">
          <mxGeometry x="160" y="295" width="20" height="45" as="geometry"/>
        </mxCell>
        <mxCell id="tmZRQzkdnRljVJp-DkMv-26" value="报销" style="rounded=1;whiteSpace=wrap;html=1;shadow=0;labelBackgroundColor=none;strokeWidth=1;fontFamily=Verdana;fontSize=8;align=center;fillColor=#dae8fc;strokeColor=#6c8ebf;direction=east;" vertex="1" parent="77e6c97f196da883-4">
          <mxGeometry x="200" y="295" width="20" height="45" as="geometry"/>
        </mxCell>
        <mxCell id="tmZRQzkdnRljVJp-DkMv-27" value="不动产" style="rounded=1;whiteSpace=wrap;html=1;shadow=0;labelBackgroundColor=none;strokeWidth=1;fontFamily=Verdana;fontSize=8;align=center;fillColor=#dae8fc;strokeColor=#6c8ebf;direction=east;" vertex="1" parent="77e6c97f196da883-4">
          <mxGeometry x="240" y="295" width="20" height="45" as="geometry"/>
        </mxCell>
        <mxCell id="tmZRQzkdnRljVJp-DkMv-28" value="" style="edgeStyle=orthogonalEdgeStyle;orthogonalLoop=1;jettySize=auto;html=1;shadow=0;comic=0;strokeColor=#7EA6E0;curved=1;entryX=0.5;entryY=0;entryDx=0;entryDy=0;" edge="1" parent="77e6c97f196da883-4" target="tmZRQzkdnRljVJp-DkMv-26">
          <mxGeometry relative="1" as="geometry">
            <mxPoint x="140" y="270" as="sourcePoint"/>
            <mxPoint x="-600" y="392" as="targetPoint"/>
            <Array as="points">
              <mxPoint x="210" y="270"/>
            </Array>
          </mxGeometry>
        </mxCell>
        <mxCell id="tmZRQzkdnRljVJp-DkMv-29" value="" style="edgeStyle=orthogonalEdgeStyle;orthogonalLoop=1;jettySize=auto;html=1;shadow=0;comic=0;strokeColor=#7EA6E0;curved=1;entryX=0.25;entryY=0;entryDx=0;entryDy=0;" edge="1" parent="77e6c97f196da883-4" target="tmZRQzkdnRljVJp-DkMv-27" source="nILxPzaiPiFsQDtniwY4-8">
          <mxGeometry relative="1" as="geometry">
            <mxPoint x="140" y="260" as="sourcePoint"/>
            <mxPoint x="-590" y="402" as="targetPoint"/>
          </mxGeometry>
        </mxCell>
        <mxCell id="tmZRQzkdnRljVJp-DkMv-30" value="&lt;font color=&quot;#7ea6e0&quot;&gt;并行查询&lt;/font&gt;" style="text;html=1;resizable=0;points=[];autosize=1;align=left;verticalAlign=top;spacingTop=-4;" vertex="1" parent="77e6c97f196da883-4">
          <mxGeometry x="190" y="270" width="60" height="20" as="geometry"/>
        </mxCell>
        <mxCell id="tmZRQzkdnRljVJp-DkMv-31" value="unchecked" style="text;html=1;strokeColor=none;fillColor=none;align=center;verticalAlign=middle;whiteSpace=wrap;rounded=0;direction=north;rotation=90;fontColor=#FFFFFF;" vertex="1" parent="77e6c97f196da883-4">
          <mxGeometry x="275" y="315" width="20" height="10" as="geometry"/>
        </mxCell>
        <mxCell id="tmZRQzkdnRljVJp-DkMv-36" value="采购" style="rounded=1;whiteSpace=wrap;html=1;shadow=0;labelBackgroundColor=none;strokeWidth=1;fontFamily=Verdana;fontSize=8;align=center;fillColor=#dae8fc;strokeColor=#6c8ebf;direction=south;" vertex="1" parent="77e6c97f196da883-4">
          <mxGeometry x="167.5" y="423.5" width="45" height="20" as="geometry"/>
        </mxCell>
        <mxCell id="tmZRQzkdnRljVJp-DkMv-37" value="采购" style="rounded=1;whiteSpace=wrap;html=1;shadow=0;labelBackgroundColor=none;strokeWidth=1;fontFamily=Verdana;fontSize=8;align=center;fillColor=#dae8fc;strokeColor=#6c8ebf;direction=south;" vertex="1" parent="77e6c97f196da883-4">
          <mxGeometry x="167.5" y="390" width="45" height="20" as="geometry"/>
        </mxCell>
        <mxCell id="tmZRQzkdnRljVJp-DkMv-38" value="采购" style="rounded=1;whiteSpace=wrap;html=1;shadow=0;labelBackgroundColor=none;strokeWidth=1;fontFamily=Verdana;fontSize=8;align=center;fillColor=#dae8fc;strokeColor=#6c8ebf;direction=south;" vertex="1" parent="77e6c97f196da883-4">
          <mxGeometry x="167.5" y="354.5" width="45" height="20" as="geometry"/>
        </mxCell>
        <mxCell id="tmZRQzkdnRljVJp-DkMv-40" value="" style="edgeStyle=orthogonalEdgeStyle;orthogonalLoop=1;jettySize=auto;html=1;fontColor=#FFFFFF;exitX=1;exitY=0.5;exitDx=0;exitDy=0;entryX=0.5;entryY=1;entryDx=0;entryDy=0;curved=1;" edge="1" parent="77e6c97f196da883-4" source="nILxPzaiPiFsQDtniwY4-49" target="tmZRQzkdnRljVJp-DkMv-36">
          <mxGeometry relative="1" as="geometry">
            <mxPoint x="135" y="410" as="sourcePoint"/>
            <mxPoint x="177.5" y="410" as="targetPoint"/>
          </mxGeometry>
        </mxCell>
        <mxCell id="tmZRQzkdnRljVJp-DkMv-41" value="" style="edgeStyle=orthogonalEdgeStyle;orthogonalLoop=1;jettySize=auto;html=1;fontColor=#FFFFFF;exitX=1;exitY=0.5;exitDx=0;exitDy=0;entryX=0.75;entryY=1;entryDx=0;entryDy=0;curved=1;" edge="1" parent="77e6c97f196da883-4" source="nILxPzaiPiFsQDtniwY4-49" target="tmZRQzkdnRljVJp-DkMv-38">
          <mxGeometry relative="1" as="geometry">
            <mxPoint x="135" y="410" as="sourcePoint"/>
            <mxPoint x="177.5" y="410" as="targetPoint"/>
          </mxGeometry>
        </mxCell>
        <mxCell id="77e6c97f196da883-5" value="output-tax" style="swimlane;html=1;startSize=20;" parent="77e6c97f196da883-1" vertex="1">
          <mxGeometry x="750" y="20" width="160" height="720" as="geometry"/>
        </mxCell>
        <mxCell id="77e6c97f196da883-15" value="查询销项数据" style="rounded=1;whiteSpace=wrap;html=1;shadow=0;labelBackgroundColor=none;strokeWidth=1;fontFamily=Verdana;fontSize=8;align=center;fillColor=#d5e8d4;strokeColor=#82b366;" parent="77e6c97f196da883-5" vertex="1">
          <mxGeometry x="30" y="305" width="100" height="60" as="geometry"/>
        </mxCell>
        <mxCell id="281USdX36rXN7U4N7sBA-5" value="" style="edgeStyle=orthogonalEdgeStyle;rounded=1;comic=0;orthogonalLoop=1;jettySize=auto;html=1;shadow=0;strokeColor=#000000;strokeWidth=1;" parent="77e6c97f196da883-1" edge="1">
          <mxGeometry relative="1" as="geometry">
            <mxPoint x="670" y="700" as="sourcePoint"/>
            <mxPoint x="120" y="700" as="targetPoint"/>
            <Array as="points">
              <mxPoint x="670" y="700"/>
              <mxPoint x="120" y="700"/>
            </Array>
          </mxGeometry>
        </mxCell>
        <mxCell id="nILxPzaiPiFsQDtniwY4-58" value="mongo" style="swimlane;html=1;startSize=20;" parent="77e6c97f196da883-1" vertex="1">
          <mxGeometry x="910" y="20" width="160" height="720" as="geometry"/>
        </mxCell>
        <mxCell id="nILxPzaiPiFsQDtniwY4-59" value="查询期初留底" style="rounded=1;whiteSpace=wrap;html=1;shadow=0;labelBackgroundColor=none;strokeWidth=1;fontFamily=Verdana;fontSize=8;align=center;fillColor=#647687;strokeColor=#314354;fontColor=#ffffff;" parent="nILxPzaiPiFsQDtniwY4-58" vertex="1">
          <mxGeometry x="30" y="470" width="100" height="60" as="geometry"/>
        </mxCell>
        <mxCell id="281USdX36rXN7U4N7sBA-6" value="" style="edgeStyle=orthogonalEdgeStyle;rounded=1;comic=0;orthogonalLoop=1;jettySize=auto;html=1;shadow=0;strokeColor=#000000;strokeWidth=1;" parent="nILxPzaiPiFsQDtniwY4-58" source="nILxPzaiPiFsQDtniwY4-62" target="281USdX36rXN7U4N7sBA-1" edge="1">
          <mxGeometry relative="1" as="geometry"/>
        </mxCell>
        <mxCell id="nILxPzaiPiFsQDtniwY4-62" value="保存取数结果" style="rounded=1;whiteSpace=wrap;html=1;shadow=0;labelBackgroundColor=none;strokeWidth=1;fontFamily=Verdana;fontSize=8;align=center;fillColor=#647687;strokeColor=#314354;fontColor=#ffffff;" parent="nILxPzaiPiFsQDtniwY4-58" vertex="1">
          <mxGeometry x="30" y="560" width="100" height="60" as="geometry"/>
        </mxCell>
        <mxCell id="281USdX36rXN7U4N7sBA-1" value="从mongo中查询数据" style="rounded=1;whiteSpace=wrap;html=1;shadow=0;labelBackgroundColor=none;strokeWidth=1;fontFamily=Verdana;fontSize=8;align=center;fillColor=#f8cecc;strokeColor=#b85450;" parent="nILxPzaiPiFsQDtniwY4-58" vertex="1">
          <mxGeometry x="30" y="650" width="100" height="60" as="geometry"/>
        </mxCell>
        <mxCell id="nILxPzaiPiFsQDtniwY4-53" value="" style="endArrow=classic;html=1;shadow=0;strokeColor=#000000;strokeWidth=1;exitX=0;exitY=0.5;exitDx=0;exitDy=0;" parent="77e6c97f196da883-1" source="nILxPzaiPiFsQDtniwY4-2" target="nILxPzaiPiFsQDtniwY4-59" edge="1">
          <mxGeometry width="50" height="50" relative="1" as="geometry">
            <mxPoint y="810" as="sourcePoint"/>
            <mxPoint x="50" y="760" as="targetPoint"/>
            <Array as="points">
              <mxPoint x="170" y="355"/>
              <mxPoint x="170" y="520"/>
            </Array>
          </mxGeometry>
        </mxCell>
        <mxCell id="nILxPzaiPiFsQDtniwY4-61" value="" style="endArrow=classic;html=1;shadow=0;strokeColor=#000000;strokeWidth=1;exitX=0.5;exitY=1;exitDx=0;exitDy=0;" parent="77e6c97f196da883-1" source="nILxPzaiPiFsQDtniwY4-59" target="nILxPzaiPiFsQDtniwY4-52" edge="1">
          <mxGeometry width="50" height="50" relative="1" as="geometry">
            <mxPoint y="820" as="sourcePoint"/>
            <mxPoint x="50" y="770" as="targetPoint"/>
            <Array as="points">
              <mxPoint x="720" y="560"/>
            </Array>
          </mxGeometry>
        </mxCell>
        <mxCell id="nILxPzaiPiFsQDtniwY4-63" value="" style="endArrow=classic;html=1;shadow=0;strokeColor=#000000;strokeWidth=1;exitX=0.5;exitY=1;exitDx=0;exitDy=0;entryX=0;entryY=0.5;entryDx=0;entryDy=0;" parent="77e6c97f196da883-1" source="nILxPzaiPiFsQDtniwY4-52" target="nILxPzaiPiFsQDtniwY4-62" edge="1">
          <mxGeometry width="50" height="50" relative="1" as="geometry">
            <mxPoint y="820" as="sourcePoint"/>
            <mxPoint x="50" y="770" as="targetPoint"/>
            <Array as="points">
              <mxPoint x="240" y="610"/>
            </Array>
          </mxGeometry>
        </mxCell>
      </root>
    </mxGraphModel>
  </diagram>
</mxfile>
